<svg width="65" height="69" viewBox="0 0 65 69" fill="none" xmlns="http://www.w3.org/2000/svg">
<g clip-path="url(#clip0_2191_29602)">
<mask id="mask0_2191_29602" style="mask-type:luminance" maskUnits="userSpaceOnUse" x="-68" y="-44" width="268" height="206">
<path d="M-67.4922 -43.5H199.508V162H-67.4922V-43.5Z" fill="white"/>
</mask>
<g mask="url(#mask0_2191_29602)">
<path fill-rule="evenodd" clip-rule="evenodd" d="M35.6086 33.6262C34.8089 31.6796 31.5951 29.5464 29.5304 28.6331C26.6477 27.3584 23.5315 26.9526 20.1094 26.9617C20.5752 27.4794 22.2352 28.403 23.0189 29.2296C23.5669 29.8073 23.7758 30.0088 24.349 30.5579C24.7348 30.9284 25.2001 31.574 25.5272 32.045C30.0841 38.6084 29.4996 46.2125 27.4549 53.6384C27.0952 54.9457 26.4616 56.4766 26.2082 57.6702C29.5099 56.4915 34.745 52.0247 36.5796 50.0428C38.9686 47.462 42.1938 43.4925 44.1198 39.5286C48.997 29.4899 50.1101 21.1774 48.3793 10.2517C48.3765 10.2323 48.2817 9.75964 48.2783 9.75164L48.1036 9.38745C48.0865 9.35491 48.0585 9.30468 48.03 9.26758C46.9899 16.8305 44.7802 23.4054 40.3648 29.1223C39.3956 30.3776 37.022 32.8784 35.6092 33.6267L35.6086 33.6262Z" fill="#B20C22"/>
<path fill-rule="evenodd" clip-rule="evenodd" d="M0.492203 36.6979C0.475078 54.3675 14.5073 68.3426 32.1158 68.3477C49.2916 68.3517 63.4117 54.2898 63.5088 37.1905L63.2445 37.9292C63.2011 38.1609 63.1685 38.5 63.1314 38.7483C62.3831 43.7802 60.3743 48.4833 57.3335 52.446C56.318 53.7698 55.0896 55.2814 53.9222 56.2832C47.7281 61.5965 41.679 64.498 32.8562 64.498C16.3534 64.498 2.75784 50.8483 2.77211 34.035C2.77782 27.4367 5.01092 21.1027 8.78926 16.0337C9.32471 15.3162 9.92922 14.6945 10.3225 14.0381C9.21054 14.9491 7.40899 17.0612 6.55959 18.2434C2.77839 23.5054 0.499625 29.736 0.492775 36.6979H0.492203Z" fill="#B20C22"/>
<path fill-rule="evenodd" clip-rule="evenodd" d="M47.0902 59.2037C44.8291 59.8013 44.4878 60.3139 41.0999 60.9122C34.6232 62.0555 27.4992 60.8163 22.1288 57.506L18.7175 55.1479C18.3351 54.8402 18.0633 54.5542 17.6883 54.2557C13.6399 51.0327 10.2161 44.785 9.06301 39.6492C6.97376 30.3395 10.0871 21.1964 14.7514 15.7672C16.0021 14.3122 17.0769 13.2207 18.5914 11.9158C19.8004 10.8746 21.5471 9.75521 23.226 8.85957C26.7897 6.9587 30.8848 5.79134 35.5428 5.6121C32.4866 4.61771 24.6599 6.3833 21.3177 7.98334C13.4961 11.728 8.04578 17.8982 5.60947 26.0091C0.15173 44.1793 13.9008 63.2389 33.912 62.8404C38.236 62.7548 44.2115 61.2307 47.0896 59.2031L47.0902 59.2037Z" fill="#1E2158"/>
<path fill-rule="evenodd" clip-rule="evenodd" d="M34.1027 17.6116C27.8413 19.7026 30.8313 28.6932 36.9124 26.9944C39.1209 26.3773 41.1799 23.9073 40.2637 20.8728C39.5982 18.6665 37.1293 16.6007 34.1027 17.6116Z" fill="#B20C22"/>
<path fill-rule="evenodd" clip-rule="evenodd" d="M45.9235 3.77004C45.0171 4.02863 43.2338 4.00693 42.5391 4.44705L45.6638 6.02198L45.1523 9.57199L47.6155 7.10599L50.9155 8.63354L49.36 5.48653L51.8311 2.85557L48.2474 3.40642L46.4955 0.629883C46.451 0.783437 46.4219 0.963252 46.399 1.11053C46.2883 1.82692 46.1639 3.28369 45.9235 3.77061V3.77004Z" fill="#1E2158"/>
</g>
</g>
<defs>
<clipPath id="clip0_2191_29602">
<rect width="64.5" height="69" fill="white"/>
</clipPath>
</defs>
</svg>
